STARTFONT 2.1
FONT -Monotype-Plantin-Bold-R-Normal--14-100-100-100-P-79-iso8859-5
SIZE 10 100 100
FONTBOUNDINGBOX 19 16 -2 -3

STARTPROPERTIES 24
FOUNDRY "Monotype"
FAMILY_NAME "Plantin"
WEIGHT_NAME "Bold"
SLANT "R"
SETWIDTH_NAME "Normal"
ADD_STYLE_NAME ""
PIXEL_SIZE 14
POINT_SIZE 100
RESOLUTION_X 100
RESOLUTION_Y 100
SPACING "P"
AVERAGE_WIDTH 79
CHARSET_REGISTRY "iso8859"
CHARSET_ENCODING "5"
FACE_NAME "Plantin Bold ISO Latin Cyrillic"
_DEC_DEVICE_FONTNAMES "PS=plantin-b-latcyrillic"
COPYRIGHT "Copyright (c) 1994 Monotype Typography Ltd."
CAP_HEIGHT 11
X_HEIGHT 7
WEIGHT 10
QUAD_WIDTH 10
DEFAULT_CHAR 160
FONT_DESCENT 4
FONT_ASCENT 13
ENDPROPERTIES

CHARS 191

STARTCHAR space
ENCODING 32
SWIDTH 250 0
DWIDTH 4 0
BBX 0 0 0 0
BITMAP
ENDCHAR

STARTCHAR exclam
ENCODING 33
SWIDTH 344 0
DWIDTH 5 0
BBX 2 10 2 0
BITMAP
C0
C0
C0
C0
C0
C0
00
00
C0
C0
ENDCHAR

STARTCHAR quotedbl
ENCODING 34
SWIDTH 552 0
DWIDTH 8 0
BBX 5 5 2 5
BITMAP
D8
D8
D8
D8
48
ENDCHAR

STARTCHAR numbersign
ENCODING 35
SWIDTH 500 0
DWIDTH 7 0
BBX 8 10 -1 0
BITMAP
12
12
12
7F
24
24
FE
48
48
48
ENDCHAR

STARTCHAR dollar
ENCODING 36
SWIDTH 521 0
DWIDTH 7 0
BBX 7 11 0 -1
BITMAP
10
7C
D6
D2
F8
7C
1E
96
D6
7C
10
ENDCHAR

STARTCHAR percent
ENCODING 37
SWIDTH 927 0
DWIDTH 13 0
BBX 13 10 0 0
BITMAP
7040
D880
D880
D900
DA70
72D8
04D8
08D8
08D8
1070
ENDCHAR

STARTCHAR ampersand
ENCODING 38
SWIDTH 781 0
DWIDTH 11 0
BBX 11 10 0 0
BITMAP
1C00
3200
3200
3400
1CE0
6C40
CE80
C700
E780
79E0
ENDCHAR

STARTCHAR quoteright
ENCODING 39
SWIDTH 344 0
DWIDTH 5 0
BBX 2 4 2 6
BITMAP
C0
C0
40
80
ENDCHAR

STARTCHAR parenleft
ENCODING 40
SWIDTH 417 0
DWIDTH 6 0
BBX 4 13 1 -3
BITMAP
10
20
60
40
C0
C0
C0
C0
C0
40
60
20
10
ENDCHAR

STARTCHAR parenright
ENCODING 41
SWIDTH 417 0
DWIDTH 6 0
BBX 4 13 1 -3
BITMAP
80
40
60
20
30
30
30
30
30
20
60
40
80
ENDCHAR

STARTCHAR asterisk
ENCODING 42
SWIDTH 510 0
DWIDTH 7 0
BBX 7 6 0 4
BITMAP
10
10
FE
38
38
44
ENDCHAR

STARTCHAR plus
ENCODING 43
SWIDTH 667 0
DWIDTH 9 0
BBX 7 7 1 1
BITMAP
10
10
10
FE
10
10
10
ENDCHAR

STARTCHAR comma
ENCODING 44
SWIDTH 344 0
DWIDTH 5 0
BBX 2 4 2 -2
BITMAP
C0
C0
40
80
ENDCHAR

STARTCHAR minus
ENCODING 45
SWIDTH 667 0
DWIDTH 9 0
BBX 8 1 1 4
BITMAP
FF
ENDCHAR

STARTCHAR period
ENCODING 46
SWIDTH 344 0
DWIDTH 5 0
BBX 2 2 2 0
BITMAP
C0
C0
ENDCHAR

STARTCHAR slash
ENCODING 47
SWIDTH 281 0
DWIDTH 4 0
BBX 4 10 0 0
BITMAP
10
10
30
20
20
60
40
40
C0
80
ENDCHAR

STARTCHAR zero
ENCODING 48
SWIDTH 521 0
DWIDTH 7 0
BBX 6 10 1 0
BITMAP
30
48
CC
CC
CC
CC
CC
CC
48
30
ENDCHAR

STARTCHAR one
ENCODING 49
SWIDTH 521 0
DWIDTH 7 0
BBX 4 10 2 0
BITMAP
20
E0
60
60
60
60
60
60
60
F0
ENDCHAR

STARTCHAR two
ENCODING 50
SWIDTH 521 0
DWIDTH 7 0
BBX 7 10 0 0
BITMAP
3C
4E
06
06
06
0C
10
22
7E
FE
ENDCHAR

STARTCHAR three
ENCODING 51
SWIDTH 521 0
DWIDTH 7 0
BBX 6 10 1 0
BITMAP
78
8C
0C
0C
78
0C
0C
0C
88
70
ENDCHAR

STARTCHAR four
ENCODING 52
SWIDTH 521 0
DWIDTH 7 0
BBX 7 10 0 0
BITMAP
04
0C
1C
2C
2C
4C
FE
FE
0C
0C
ENDCHAR

STARTCHAR five
ENCODING 53
SWIDTH 521 0
DWIDTH 7 0
BBX 7 10 0 0
BITMAP
1E
3C
20
78
1C
0E
06
06
8C
78
ENDCHAR

STARTCHAR six
ENCODING 54
SWIDTH 521 0
DWIDTH 7 0
BBX 6 10 1 0
BITMAP
1C
30
60
60
D8
EC
CC
CC
CC
78
ENDCHAR

STARTCHAR seven
ENCODING 55
SWIDTH 521 0
DWIDTH 7 0
BBX 6 10 1 0
BITMAP
7C
FC
84
0C
08
18
10
30
20
20
ENDCHAR

STARTCHAR eight
ENCODING 56
SWIDTH 521 0
DWIDTH 7 0
BBX 6 10 1 0
BITMAP
78
C4
C4
E4
78
58
8C
8C
8C
78
ENDCHAR

STARTCHAR nine
ENCODING 57
SWIDTH 521 0
DWIDTH 7 0
BBX 6 10 1 0
BITMAP
78
CC
CC
CC
DC
6C
18
18
30
E0
ENDCHAR

STARTCHAR colon
ENCODING 58
SWIDTH 344 0
DWIDTH 5 0
BBX 2 6 2 0
BITMAP
C0
C0
00
00
C0
C0
ENDCHAR

STARTCHAR semicolon
ENCODING 59
SWIDTH 344 0
DWIDTH 5 0
BBX 2 8 2 -2
BITMAP
C0
C0
00
00
C0
C0
40
80
ENDCHAR

STARTCHAR less
ENCODING 60
SWIDTH 667 0
DWIDTH 9 0
BBX 7 7 1 1
BITMAP
02
0E
38
E0
38
0E
02
ENDCHAR

STARTCHAR equal
ENCODING 61
SWIDTH 667 0
DWIDTH 9 0
BBX 7 3 1 3
BITMAP
FE
00
FE
ENDCHAR

STARTCHAR greater
ENCODING 62
SWIDTH 667 0
DWIDTH 9 0
BBX 7 7 1 1
BITMAP
80
E0
38
0E
38
E0
80
ENDCHAR

STARTCHAR question
ENCODING 63
SWIDTH 458 0
DWIDTH 6 0
BBX 5 10 1 0
BITMAP
70
D8
18
38
70
60
40
00
60
60
ENDCHAR

STARTCHAR at
ENCODING 64
SWIDTH 927 0
DWIDTH 13 0
BBX 12 13 1 -3
BITMAP
0F80
3060
4020
4290
8590
8990
9910
9B20
9F60
5990
4020
30C0
0F00
ENDCHAR

STARTCHAR A
ENCODING 65
SWIDTH 781 0
DWIDTH 11 0
BBX 11 10 0 0
BITMAP
0C00
0C00
0E00
1600
1700
3F00
2380
4180
41C0
E3E0
ENDCHAR

STARTCHAR B
ENCODING 66
SWIDTH 781 0
DWIDTH 11 0
BBX 10 10 1 0
BITMAP
FF80
61C0
60C0
6180
7F00
6180
60C0
60C0
6180
FF00
ENDCHAR

STARTCHAR C
ENCODING 67
SWIDTH 802 0
DWIDTH 11 0
BBX 10 10 1 0
BITMAP
1F80
70C0
6040
C000
C000
C000
C000
6040
70C0
1F80
ENDCHAR

STARTCHAR D
ENCODING 68
SWIDTH 875 0
DWIDTH 12 0
BBX 11 10 1 0
BITMAP
FF00
61C0
60C0
6060
6060
6060
6060
60C0
61C0
FF00
ENDCHAR

STARTCHAR E
ENCODING 69
SWIDTH 750 0
DWIDTH 11 0
BBX 9 10 1 0
BITMAP
FF00
6180
6000
6100
7F00
6100
6000
6080
6180
FF00
ENDCHAR

STARTCHAR F
ENCODING 70
SWIDTH 687 0
DWIDTH 10 0
BBX 8 10 1 0
BITMAP
FE
63
60
62
7E
62
60
60
60
F0
ENDCHAR

STARTCHAR G
ENCODING 71
SWIDTH 844 0
DWIDTH 12 0
BBX 11 10 1 0
BITMAP
1F80
70C0
6040
C000
C000
C1E0
C0C0
60C0
70C0
1F80
ENDCHAR

STARTCHAR H
ENCODING 72
SWIDTH 875 0
DWIDTH 12 0
BBX 10 10 1 0
BITMAP
F3C0
6180
6180
6180
7F80
6180
6180
6180
6180
F3C0
ENDCHAR

STARTCHAR I
ENCODING 73
SWIDTH 406 0
DWIDTH 6 0
BBX 4 10 1 0
BITMAP
F0
60
60
60
60
60
60
60
60
F0
ENDCHAR

STARTCHAR J
ENCODING 74
SWIDTH 406 0
DWIDTH 6 0
BBX 5 13 0 -3
BITMAP
78
30
30
30
30
30
30
30
30
30
30
B0
E0
ENDCHAR

STARTCHAR K
ENCODING 75
SWIDTH 781 0
DWIDTH 11 0
BBX 10 10 1 0
BITMAP
F3C0
6300
6600
6C00
7800
7C00
6E00
6700
6380
F3C0
ENDCHAR

STARTCHAR L
ENCODING 76
SWIDTH 687 0
DWIDTH 10 0
BBX 8 10 1 0
BITMAP
F0
60
60
60
60
60
60
61
63
FF
ENDCHAR

STARTCHAR M
ENCODING 77
SWIDTH 1010 0
DWIDTH 14 0
BBX 14 10 0 0
BITMAP
7038
3870
3870
3CB0
2CB0
4D18
4F18
4618
4618
E63C
ENDCHAR

STARTCHAR N
ENCODING 78
SWIDTH 792 0
DWIDTH 11 0
BBX 10 10 1 0
BITMAP
C1C0
6080
7080
7880
5C80
4E80
4780
4380
4180
E080
ENDCHAR

STARTCHAR O
ENCODING 79
SWIDTH 875 0
DWIDTH 12 0
BBX 11 10 1 0
BITMAP
1F00
71C0
60C0
C060
C060
C060
C060
60C0
71C0
1F00
ENDCHAR

STARTCHAR P
ENCODING 80
SWIDTH 729 0
DWIDTH 10 0
BBX 9 10 1 0
BITMAP
FE00
6300
6180
6180
6300
6E00
6000
6000
6000
F000
ENDCHAR

STARTCHAR Q
ENCODING 81
SWIDTH 865 0
DWIDTH 12 0
BBX 11 13 1 -3
BITMAP
1F00
71C0
60C0
C060
C060
C060
C060
60C0
71C0
1F00
0700
0380
00E0
ENDCHAR

STARTCHAR R
ENCODING 82
SWIDTH 771 0
DWIDTH 11 0
BBX 10 10 1 0
BITMAP
FE00
6300
6180
6180
6300
7C00
6E00
6700
6380
F1C0
ENDCHAR

STARTCHAR S
ENCODING 83
SWIDTH 656 0
DWIDTH 9 0
BBX 7 10 1 0
BITMAP
7C
C6
C2
F0
7C
1E
0E
86
C6
7C
ENDCHAR

STARTCHAR T
ENCODING 84
SWIDTH 740 0
DWIDTH 10 0
BBX 10 10 0 0
BITMAP
FFC0
CCC0
0C00
0C00
0C00
0C00
0C00
0C00
0C00
1E00
ENDCHAR

STARTCHAR U
ENCODING 85
SWIDTH 833 0
DWIDTH 12 0
BBX 10 10 1 0
BITMAP
F1C0
6080
6080
6080
6080
6080
6080
6080
3100
1E00
ENDCHAR

STARTCHAR V
ENCODING 86
SWIDTH 729 0
DWIDTH 10 0
BBX 10 10 0 0
BITMAP
F1C0
6080
7080
3100
3900
1900
1E00
0E00
0C00
0400
ENDCHAR

STARTCHAR W
ENCODING 87
SWIDTH 1031 0
DWIDTH 14 0
BBX 15 10 0 0
BITMAP
F3CE
6184
71C4
30C8
39C8
19E8
1E70
0E70
0C60
0420
ENDCHAR

STARTCHAR X
ENCODING 88
SWIDTH 781 0
DWIDTH 11 0
BBX 11 10 0 0
BITMAP
F9E0
7080
3900
1E00
0C00
0600
0F00
1380
21C0
F3E0
ENDCHAR

STARTCHAR Y
ENCODING 89
SWIDTH 729 0
DWIDTH 10 0
BBX 10 10 0 0
BITMAP
FBC0
7180
3100
1A00
1E00
0C00
0C00
0C00
0C00
1E00
ENDCHAR

STARTCHAR Z
ENCODING 90
SWIDTH 687 0
DWIDTH 10 0
BBX 9 10 1 0
BITMAP
7F80
C380
8700
0E00
0C00
1C00
3800
3080
7180
FF00
ENDCHAR

STARTCHAR bracketleft
ENCODING 91
SWIDTH 396 0
DWIDTH 6 0
BBX 3 13 2 -3
BITMAP
E0
C0
C0
C0
C0
C0
C0
C0
C0
C0
C0
C0
E0
ENDCHAR

STARTCHAR backslash
ENCODING 92
SWIDTH 281 0
DWIDTH 4 0
BBX 4 10 0 0
BITMAP
80
C0
40
40
60
20
20
30
10
10
ENDCHAR

STARTCHAR bracketright
ENCODING 93
SWIDTH 396 0
DWIDTH 6 0
BBX 3 13 2 -3
BITMAP
E0
60
60
60
60
60
60
60
60
60
60
60
E0
ENDCHAR

STARTCHAR asciicircum
ENCODING 94
SWIDTH 583 0
DWIDTH 8 0
BBX 6 4 1 6
BITMAP
30
30
58
CC
ENDCHAR

STARTCHAR underscore
ENCODING 95
SWIDTH 500 0
DWIDTH 7 0
BBX 7 1 0 -3
BITMAP
FE
ENDCHAR

STARTCHAR quoteleft
ENCODING 96
SWIDTH 344 0
DWIDTH 5 0
BBX 2 4 2 6
BITMAP
40
80
C0
C0
ENDCHAR

STARTCHAR a
ENCODING 97
SWIDTH 562 0
DWIDTH 8 0
BBX 7 7 1 0
BITMAP
78
CC
1C
6C
CC
CC
76
ENDCHAR

STARTCHAR b
ENCODING 98
SWIDTH 604 0
DWIDTH 8 0
BBX 8 10 0 0
BITMAP
20
E0
60
6E
77
63
63
63
66
3C
ENDCHAR

STARTCHAR c
ENCODING 99
SWIDTH 521 0
DWIDTH 7 0
BBX 6 7 1 0
BITMAP
38
4C
C0
C0
C0
E4
78
ENDCHAR

STARTCHAR d
ENCODING 100
SWIDTH 615 0
DWIDTH 9 0
BBX 8 10 1 0
BITMAP
02
0E
06
36
6E
C6
C6
C6
EE
77
ENDCHAR

STARTCHAR e
ENCODING 101
SWIDTH 521 0
DWIDTH 7 0
BBX 6 7 1 0
BITMAP
38
6C
CC
FC
C0
C4
78
ENDCHAR

STARTCHAR f
ENCODING 102
SWIDTH 354 0
DWIDTH 5 0
BBX 6 10 1 0
BITMAP
38
6C
60
F0
60
60
60
60
60
F0
ENDCHAR

STARTCHAR g
ENCODING 103
SWIDTH 552 0
DWIDTH 8 0
BBX 7 10 1 -3
BITMAP
76
CC
CC
CC
78
C0
F8
7C
C4
78
ENDCHAR

STARTCHAR h
ENCODING 104
SWIDTH 625 0
DWIDTH 9 0
BBX 8 10 1 0
BITMAP
20
E0
60
6C
76
66
66
66
66
F7
ENDCHAR

STARTCHAR i
ENCODING 105
SWIDTH 333 0
DWIDTH 5 0
BBX 4 10 1 0
BITMAP
60
60
00
20
E0
60
60
60
60
F0
ENDCHAR

STARTCHAR j
ENCODING 106
SWIDTH 313 0
DWIDTH 5 0
BBX 3 13 1 -3
BITMAP
60
60
00
20
E0
60
60
60
60
60
60
40
80
ENDCHAR

STARTCHAR k
ENCODING 107
SWIDTH 552 0
DWIDTH 9 0
BBX 8 10 1 0
BITMAP
20
E0
60
6E
64
68
78
6C
66
F3
ENDCHAR

STARTCHAR l
ENCODING 108
SWIDTH 312 0
DWIDTH 5 0
BBX 4 10 1 0
BITMAP
20
E0
60
60
60
60
60
60
60
F0
ENDCHAR

STARTCHAR m
ENCODING 109
SWIDTH 979 0
DWIDTH 13 0
BBX 12 7 1 0
BITMAP
6EC0
F760
6660
6660
6660
6660
F770
ENDCHAR

STARTCHAR n
ENCODING 110
SWIDTH 625 0
DWIDTH 9 0
BBX 8 7 1 0
BITMAP
2C
F6
66
66
66
66
F7
ENDCHAR

STARTCHAR o
ENCODING 111
SWIDTH 573 0
DWIDTH 8 0
BBX 7 7 1 0
BITMAP
38
6C
C6
C6
C6
6C
38
ENDCHAR

STARTCHAR p
ENCODING 112
SWIDTH 615 0
DWIDTH 9 0
BBX 8 10 1 -3
BITMAP
2E
F7
63
63
63
76
6C
60
60
F0
ENDCHAR

STARTCHAR q
ENCODING 113
SWIDTH 615 0
DWIDTH 9 0
BBX 8 10 1 -3
BITMAP
32
6E
C6
C6
C6
CE
76
06
06
0F
ENDCHAR

STARTCHAR r
ENCODING 114
SWIDTH 479 0
DWIDTH 7 0
BBX 6 7 1 0
BITMAP
2C
F8
60
60
60
60
F0
ENDCHAR

STARTCHAR s
ENCODING 115
SWIDTH 458 0
DWIDTH 6 0
BBX 5 7 1 0
BITMAP
78
C8
E0
70
38
98
F0
ENDCHAR

STARTCHAR t
ENCODING 116
SWIDTH 375 0
DWIDTH 5 0
BBX 5 9 1 0
BITMAP
20
60
F8
60
60
60
60
60
38
ENDCHAR

STARTCHAR u
ENCODING 117
SWIDTH 625 0
DWIDTH 9 0
BBX 8 7 1 0
BITMAP
EE
66
66
66
66
6E
37
ENDCHAR

STARTCHAR v
ENCODING 118
SWIDTH 542 0
DWIDTH 8 0
BBX 8 7 0 0
BITMAP
F7
62
32
34
1C
18
08
ENDCHAR

STARTCHAR w
ENCODING 119
SWIDTH 771 0
DWIDTH 11 0
BBX 13 7 -1 0
BITMAP
F7B8
6310
3320
3320
1AC0
1CC0
0880
ENDCHAR

STARTCHAR x
ENCODING 120
SWIDTH 552 0
DWIDTH 8 0
BBX 8 7 0 0
BITMAP
F7
62
34
18
2C
46
EF
ENDCHAR

STARTCHAR y
ENCODING 121
SWIDTH 542 0
DWIDTH 8 0
BBX 9 10 0 -3
BITMAP
FB80
7100
3100
3200
1A00
1C00
0C00
0800
5800
3000
ENDCHAR

STARTCHAR z
ENCODING 122
SWIDTH 510 0
DWIDTH 7 0
BBX 7 7 0 0
BITMAP
7E
CC
18
30
30
66
FC
ENDCHAR

STARTCHAR braceleft
ENCODING 123
SWIDTH 396 0
DWIDTH 6 0
BBX 4 13 1 -3
BITMAP
30
60
60
60
60
40
80
40
60
60
60
60
30
ENDCHAR

STARTCHAR bar
ENCODING 124
SWIDTH 219 0
DWIDTH 3 0
BBX 1 13 1 -3
BITMAP
80
80
80
80
80
80
80
80
80
80
80
80
80
ENDCHAR

STARTCHAR braceright
ENCODING 125
SWIDTH 396 0
DWIDTH 6 0
BBX 4 13 1 -3
BITMAP
C0
60
60
60
60
20
10
20
60
60
60
60
C0
ENDCHAR

STARTCHAR asciitilde
ENCODING 126
SWIDTH 521 0
DWIDTH 7 0
BBX 7 2 0 4
BITMAP
72
9C
ENDCHAR

STARTCHAR space
ENCODING 160
SWIDTH 250 0
DWIDTH 4 0
BBX 0 0 0 0
BITMAP
ENDCHAR

STARTCHAR afii10023
ENCODING 161
SWIDTH 750 0
DWIDTH 11 0
BBX 9 13 1 0
BITMAP
3300
3300
0000
FF00
6180
6000
6100
7F00
6100
6000
6080
6180
FF00
ENDCHAR

STARTCHAR afii10051
ENCODING 162
SWIDTH 850 0
DWIDTH 11 0
BBX 12 10 -2 0
BITMAP
7F80
CCC0
0C00
0DC0
0E60
0C30
0C30
0C30
0CB0
1EE0
ENDCHAR

STARTCHAR afii10052
ENCODING 163
SWIDTH 646 0
DWIDTH 9 0
BBX 8 13 1 0
BITMAP
0C
18
00
FE
63
60
60
60
60
60
60
60
F0
ENDCHAR

STARTCHAR afii10053
ENCODING 164
SWIDTH 813 0
DWIDTH 11 0
BBX 10 10 1 0
BITMAP
1F80
70C0
6040
C000
FE00
C000
C000
6040
70C0
1F00
ENDCHAR

STARTCHAR afii10054
ENCODING 165
SWIDTH 656 0
DWIDTH 9 0
BBX 7 10 1 0
BITMAP
7C
C6
C2
F0
7C
1E
0E
86
C6
7C
ENDCHAR

STARTCHAR afii10055
ENCODING 166
SWIDTH 406 0
DWIDTH 6 0
BBX 4 10 1 0
BITMAP
F0
60
60
60
60
60
60
60
60
F0
ENDCHAR

STARTCHAR afii10056
ENCODING 167
SWIDTH 406 0
DWIDTH 6 0
BBX 6 13 0 0
BITMAP
CC
CC
00
78
30
30
30
30
30
30
30
30
78
ENDCHAR

STARTCHAR afii10057
ENCODING 168
SWIDTH 406 0
DWIDTH 6 0
BBX 5 13 0 -3
BITMAP
78
30
30
30
30
30
30
30
30
30
30
B0
E0
ENDCHAR

STARTCHAR afii10058
ENCODING 169
SWIDTH 1086 0
DWIDTH 15 0
BBX 15 10 0 0
BITMAP
3FC0
1180
1180
1180
11F8
118C
1186
1186
918C
63F8
ENDCHAR

STARTCHAR afii10059
ENCODING 170
SWIDTH 1095 0
DWIDTH 15 0
BBX 14 10 1 0
BITMAP
F780
6300
6300
6300
7FF0
6318
630C
630C
6318
F7F0
ENDCHAR

STARTCHAR afii10060
ENCODING 171
SWIDTH 854 0
DWIDTH 12 0
BBX 12 10 -1 0
BITMAP
7F80
CCC0
0C00
0D80
0E40
0C60
0C60
0C60
0C60
1EF0
ENDCHAR

STARTCHAR afii10061
ENCODING 172
SWIDTH 781 0
DWIDTH 11 0
BBX 10 13 1 0
BITMAP
0600
0C00
0000
F1C0
6340
6200
6200
7C00
6C00
6600
6700
6380
F1C0
ENDCHAR

STARTCHAR hyphen
ENCODING 173
SWIDTH 458 0
DWIDTH 6 0
BBX 5 1 1 3
BITMAP
F8
ENDCHAR

STARTCHAR afii10062
ENCODING 174
SWIDTH 750 0
DWIDTH 11 0
BBX 10 13 1 0
BITMAP
1100
0E00
0000
F1C0
6080
3080
3100
1900
1A00
0E00
0400
6400
3800
ENDCHAR

STARTCHAR afii10145
ENCODING 175
SWIDTH 854 0
DWIDTH 12 0
BBX 10 12 1 -2
BITMAP
F3C0
6180
6180
6180
6180
6180
6180
6180
6180
FFC0
0C00
0C00
ENDCHAR

STARTCHAR afii10017
ENCODING 176
SWIDTH 781 0
DWIDTH 11 0
BBX 11 10 0 0
BITMAP
0C00
0C00
0E00
1600
1700
3F00
2380
4180
41C0
E3E0
ENDCHAR

STARTCHAR afii10018
ENCODING 177
SWIDTH 740 0
DWIDTH 10 0
BBX 9 10 1 0
BITMAP
FE00
6300
6000
6000
7E00
6300
6180
6180
6300
FE00
ENDCHAR

STARTCHAR afii10019
ENCODING 178
SWIDTH 781 0
DWIDTH 11 0
BBX 10 10 1 0
BITMAP
FF80
61C0
60C0
6180
7F00
6180
60C0
60C0
6180
FF00
ENDCHAR

STARTCHAR afii10020
ENCODING 179
SWIDTH 646 0
DWIDTH 9 0
BBX 8 10 1 0
BITMAP
FE
63
60
60
60
60
60
60
60
F0
ENDCHAR

STARTCHAR afii10021
ENCODING 180
SWIDTH 781 0
DWIDTH 11 0
BBX 11 12 0 -2
BITMAP
7FC0
2180
2180
2180
2180
2180
2180
4180
4180
7FC0
C060
8020
ENDCHAR

STARTCHAR afii10022
ENCODING 181
SWIDTH 750 0
DWIDTH 11 0
BBX 9 10 1 0
BITMAP
FF00
6180
6000
6100
7F00
6100
6000
6080
6180
FF00
ENDCHAR

STARTCHAR afii10024
ENCODING 182
SWIDTH 1094 0
DWIDTH 15 0
BBX 14 10 1 0
BITMAP
C78C
6318
1320
1320
1FE0
1B60
3330
3330
6318
E79C
ENDCHAR

STARTCHAR afii10025
ENCODING 183
SWIDTH 750 0
DWIDTH 11 0
BBX 9 10 1 0
BITMAP
7F00
C380
8180
0300
1C00
0300
0180
8180
C380
7F00
ENDCHAR

STARTCHAR afii10026
ENCODING 184
SWIDTH 854 0
DWIDTH 12 0
BBX 10 10 1 0
BITMAP
F3C0
6180
6180
6380
6580
6980
7180
6180
6180
F3C0
ENDCHAR

STARTCHAR afii10027
ENCODING 185
SWIDTH 854 0
DWIDTH 12 0
BBX 10 13 1 0
BITMAP
1100
0E00
0000
F3C0
6180
6180
6380
6580
6980
7180
6180
6180
F3C0
ENDCHAR

STARTCHAR afii10028
ENCODING 186
SWIDTH 781 0
DWIDTH 11 0
BBX 10 10 1 0
BITMAP
F1C0
6340
6200
6200
7C00
6C00
6600
6700
6380
F1C0
ENDCHAR

STARTCHAR afii10029
ENCODING 187
SWIDTH 833 0
DWIDTH 11 0
BBX 10 10 0 0
BITMAP
3FC0
1180
1180
1180
1180
1180
1180
1180
9180
63C0
ENDCHAR

STARTCHAR afii10030
ENCODING 188
SWIDTH 1010 0
DWIDTH 14 0
BBX 14 10 0 0
BITMAP
7038
3870
3870
3CB0
2CB0
4D18
4F18
4618
4618
E63C
ENDCHAR

STARTCHAR afii10031
ENCODING 189
SWIDTH 875 0
DWIDTH 12 0
BBX 10 10 1 0
BITMAP
F3C0
6180
6180
6180
7F80
6180
6180
6180
6180
F3C0
ENDCHAR

STARTCHAR afii10032
ENCODING 190
SWIDTH 875 0
DWIDTH 12 0
BBX 11 10 1 0
BITMAP
1F00
71C0
60C0
C060
C060
C060
C060
60C0
71C0
1F00
ENDCHAR

STARTCHAR afii10033
ENCODING 191
SWIDTH 854 0
DWIDTH 12 0
BBX 10 10 1 0
BITMAP
FFC0
6180
6180
6180
6180
6180
6180
6180
6180
F3C0
ENDCHAR

STARTCHAR afii10034
ENCODING 192
SWIDTH 729 0
DWIDTH 10 0
BBX 9 10 1 0
BITMAP
FE00
6300
6180
6180
6300
6E00
6000
6000
6000
F000
ENDCHAR

STARTCHAR afii10035
ENCODING 193
SWIDTH 802 0
DWIDTH 11 0
BBX 10 10 1 0
BITMAP
1F80
70C0
6040
C000
C000
C000
C000
6040
70C0
1F80
ENDCHAR

STARTCHAR afii10036
ENCODING 194
SWIDTH 740 0
DWIDTH 10 0
BBX 10 10 0 0
BITMAP
FFC0
CCC0
0C00
0C00
0C00
0C00
0C00
0C00
0C00
1E00
ENDCHAR

STARTCHAR afii10037
ENCODING 195
SWIDTH 750 0
DWIDTH 11 0
BBX 10 10 1 0
BITMAP
F1C0
6080
3080
3100
1900
1A00
0E00
0400
6400
3800
ENDCHAR

STARTCHAR afii10038
ENCODING 196
SWIDTH 974 0
DWIDTH 14 0
BBX 12 10 1 0
BITMAP
0F00
0600
7FE0
C630
C630
C630
C630
7FE0
0600
0F00
ENDCHAR

STARTCHAR afii10039
ENCODING 197
SWIDTH 781 0
DWIDTH 11 0
BBX 11 10 0 0
BITMAP
F9E0
7080
3900
1E00
0C00
0600
0F00
1380
21C0
F3E0
ENDCHAR

STARTCHAR afii10040
ENCODING 198
SWIDTH 854 0
DWIDTH 12 0
BBX 10 12 1 -2
BITMAP
F3C0
6180
6180
6180
6180
6180
6180
6180
6180
FF80
00C0
0040
ENDCHAR

STARTCHAR afii10041
ENCODING 199
SWIDTH 854 0
DWIDTH 12 0
BBX 10 10 1 0
BITMAP
F3C0
6180
6180
6180
6180
7380
3D80
0180
0180
03C0
ENDCHAR

STARTCHAR afii10042
ENCODING 200
SWIDTH 1125 0
DWIDTH 16 0
BBX 14 10 1 0
BITMAP
F7BC
6318
6318
6318
6318
6318
6318
6318
6318
FFFC
ENDCHAR

STARTCHAR afii10043
ENCODING 201
SWIDTH 1125 0
DWIDTH 16 0
BBX 14 12 1 -2
BITMAP
F7BC
6318
6318
6318
6318
6318
6318
6318
6318
FFF8
000C
0004
ENDCHAR

STARTCHAR afii10044
ENCODING 202
SWIDTH 832 0
DWIDTH 12 0
BBX 12 10 0 0
BITMAP
7E00
CC00
0C00
0C00
0FC0
0C60
0C30
0C30
0C60
1FC0
ENDCHAR

STARTCHAR afii10045
ENCODING 203
SWIDTH 1125 0
DWIDTH 16 0
BBX 14 10 1 0
BITMAP
F03C
6018
6018
6018
7E18
6318
6198
6198
6318
FE3C
ENDCHAR

STARTCHAR afii10046
ENCODING 204
SWIDTH 721 0
DWIDTH 10 0
BBX 9 10 1 0
BITMAP
F000
6000
6000
6000
7E00
6300
6180
6180
6300
FE00
ENDCHAR

STARTCHAR afii10047
ENCODING 205
SWIDTH 802 0
DWIDTH 11 0
BBX 10 10 1 0
BITMAP
7E00
C380
8180
00C0
1FC0
00C0
00C0
8180
C380
3E00
ENDCHAR

STARTCHAR afii10048
ENCODING 206
SWIDTH 1219 0
DWIDTH 17 0
BBX 16 10 1 0
BITMAP
F0F8
638E
6306
6603
7E03
6603
6603
6306
638E
F0F8
ENDCHAR

STARTCHAR afii10049
ENCODING 207
SWIDTH 802 0
DWIDTH 11 0
BBX 10 10 0 0
BITMAP
1FC0
3180
6180
6180
3180
0F80
1D80
3980
7180
E3C0
ENDCHAR

STARTCHAR afii10065
ENCODING 208
SWIDTH 563 0
DWIDTH 8 0
BBX 7 7 1 0
BITMAP
78
CC
1C
6C
CC
CC
76
ENDCHAR

STARTCHAR afii10066
ENCODING 209
SWIDTH 583 0
DWIDTH 8 0
BBX 7 10 1 0
BITMAP
0E
38
40
B8
EC
C6
C6
C6
6C
38
ENDCHAR

STARTCHAR afii10067
ENCODING 210
SWIDTH 573 0
DWIDTH 7 0
BBX 7 7 0 0
BITMAP
FC
66
66
7C
66
66
FC
ENDCHAR

STARTCHAR afii10068
ENCODING 211
SWIDTH 542 0
DWIDTH 8 0
BBX 7 7 1 0
BITMAP
FC
66
60
60
60
60
F0
ENDCHAR

STARTCHAR afii10069
ENCODING 212
SWIDTH 565 0
DWIDTH 8 0
BBX 8 9 0 -2
BITMAP
7F
26
26
26
46
46
7E
C3
81
ENDCHAR

STARTCHAR afii10070
ENCODING 213
SWIDTH 521 0
DWIDTH 7 0
BBX 6 7 1 0
BITMAP
38
6C
CC
FC
C0
C4
78
ENDCHAR

STARTCHAR afii10072
ENCODING 214
SWIDTH 1021 0
DWIDTH 14 0
BBX 14 7 0 0
BITMAP
C78C
6318
1320
1FE0
3330
3330
E79C
ENDCHAR

STARTCHAR afii10073
ENCODING 215
SWIDTH 521 0
DWIDTH 7 0
BBX 6 7 1 0
BITMAP
78
CC
0C
38
0C
CC
78
ENDCHAR

STARTCHAR afii10074
ENCODING 216
SWIDTH 625 0
DWIDTH 8 0
BBX 8 7 0 0
BITMAP
F7
66
6E
76
66
66
EF
ENDCHAR

STARTCHAR afii10075
ENCODING 217
SWIDTH 625 0
DWIDTH 8 0
BBX 8 10 0 0
BITMAP
22
1C
00
F7
66
6E
76
66
66
EF
ENDCHAR

STARTCHAR afii10076
ENCODING 218
SWIDTH 604 0
DWIDTH 8 0
BBX 8 7 0 0
BITMAP
F3
65
68
78
6C
66
F7
ENDCHAR

STARTCHAR afii10077
ENCODING 219
SWIDTH 573 0
DWIDTH 8 0
BBX 8 7 0 0
BITMAP
7F
26
26
26
26
26
CF
ENDCHAR

STARTCHAR afii10078
ENCODING 220
SWIDTH 781 0
DWIDTH 10 0
BBX 10 7 0 0
BITMAP
E1C0
6380
7380
7580
5D80
5980
EBC0
ENDCHAR

STARTCHAR afii10079
ENCODING 221
SWIDTH 604 0
DWIDTH 8 0
BBX 8 7 0 0
BITMAP
F7
66
66
7E
66
66
EF
ENDCHAR

STARTCHAR afii10080
ENCODING 222
SWIDTH 573 0
DWIDTH 8 0
BBX 7 7 1 0
BITMAP
38
6C
C6
C6
C6
6C
38
ENDCHAR

STARTCHAR afii10081
ENCODING 223
SWIDTH 615 0
DWIDTH 8 0
BBX 8 7 0 0
BITMAP
FF
66
66
66
66
66
E7
ENDCHAR

STARTCHAR afii10082
ENCODING 224
SWIDTH 615 0
DWIDTH 9 0
BBX 8 10 1 -3
BITMAP
2E
F7
63
63
63
76
6C
60
60
F0
ENDCHAR

STARTCHAR afii10083
ENCODING 225
SWIDTH 521 0
DWIDTH 7 0
BBX 6 7 1 0
BITMAP
38
4C
C0
C0
C0
E4
78
ENDCHAR

STARTCHAR afii10084
ENCODING 226
SWIDTH 583 0
DWIDTH 8 0
BBX 8 7 0 0
BITMAP
7E
DB
18
18
18
18
3C
ENDCHAR

STARTCHAR afii10085
ENCODING 227
SWIDTH 542 0
DWIDTH 8 0
BBX 9 10 0 -3
BITMAP
FB80
7100
3100
3200
1A00
1C00
0C00
0800
5800
3000
ENDCHAR

STARTCHAR afii10086
ENCODING 228
SWIDTH 823 0
DWIDTH 12 0
BBX 10 13 1 -3
BITMAP
0400
1C00
0C00
0C00
3F00
4C80
CCC0
CCC0
4C80
3F00
0C00
0C00
1E00
ENDCHAR

STARTCHAR afii10087
ENCODING 229
SWIDTH 552 0
DWIDTH 8 0
BBX 8 7 0 0
BITMAP
F7
62
34
18
2C
46
EF
ENDCHAR

STARTCHAR afii10088
ENCODING 230
SWIDTH 615 0
DWIDTH 8 0
BBX 8 9 0 -2
BITMAP
E7
66
66
66
66
66
FE
03
01
ENDCHAR

STARTCHAR afii10089
ENCODING 231
SWIDTH 594 0
DWIDTH 8 0
BBX 8 7 0 0
BITMAP
F7
66
66
66
3E
06
0F
ENDCHAR

STARTCHAR afii10090
ENCODING 232
SWIDTH 1022 0
DWIDTH 14 0
BBX 14 7 0 0
BITMAP
F7BC
6318
6318
6318
6318
6318
FFFC
ENDCHAR

STARTCHAR afii10091
ENCODING 233
SWIDTH 1019 0
DWIDTH 14 0
BBX 14 9 0 -2
BITMAP
F7BC
6318
6318
6318
6318
6318
FFF8
000C
0004
ENDCHAR

STARTCHAR afii10092
ENCODING 234
SWIDTH 729 0
DWIDTH 9 0
BBX 9 7 0 0
BITMAP
7C00
D800
1800
1F00
1980
1980
3F00
ENDCHAR

STARTCHAR afii10093
ENCODING 235
SWIDTH 833 0
DWIDTH 12 0
BBX 12 7 0 0
BITMAP
F0F0
6060
6060
7C60
6660
6660
FCF0
ENDCHAR

STARTCHAR afii10094
ENCODING 236
SWIDTH 563 0
DWIDTH 7 0
BBX 7 7 0 0
BITMAP
F0
60
60
7C
66
66
FC
ENDCHAR

STARTCHAR afii10095
ENCODING 237
SWIDTH 521 0
DWIDTH 7 0
BBX 6 7 1 0
BITMAP
78
CC
0C
3C
0C
CC
78
ENDCHAR

STARTCHAR afii10096
ENCODING 238
SWIDTH 854 0
DWIDTH 12 0
BBX 12 7 0 0
BITMAP
F1C0
6360
6630
7E30
6630
6360
F1C0
ENDCHAR

STARTCHAR afii10097
ENCODING 239
SWIDTH 604 0
DWIDTH 8 0
BBX 8 7 0 0
BITMAP
1F
36
66
3E
36
66
CF
ENDCHAR

STARTCHAR afii61352
ENCODING 240
SWIDTH 1115 0
DWIDTH 16 0
BBX 15 10 0 0
BITMAP
6060
30D0
3880
3C9C
2EB6
27B6
23B6
219C
6080
C0BE
ENDCHAR

STARTCHAR afii10071
ENCODING 241
SWIDTH 521 0
DWIDTH 7 0
BBX 6 10 1 0
BITMAP
CC
CC
00
38
6C
CC
FC
C0
C4
78
ENDCHAR

STARTCHAR afii10099
ENCODING 242
SWIDTH 594 0
DWIDTH 8 0
BBX 7 13 0 -3
BITMAP
20
60
FE
60
6C
76
66
66
66
F6
06
04
08
ENDCHAR

STARTCHAR afii10100
ENCODING 243
SWIDTH 542 0
DWIDTH 8 0
BBX 7 10 1 0
BITMAP
18
30
00
FC
66
60
60
60
60
F0
ENDCHAR

STARTCHAR afii10101
ENCODING 244
SWIDTH 521 0
DWIDTH 7 0
BBX 6 7 1 0
BITMAP
78
CC
C0
F0
C0
CC
78
ENDCHAR

STARTCHAR afii10102
ENCODING 245
SWIDTH 458 0
DWIDTH 6 0
BBX 5 7 1 0
BITMAP
78
C8
E0
70
38
98
F0
ENDCHAR

STARTCHAR afii10103
ENCODING 246
SWIDTH 333 0
DWIDTH 5 0
BBX 4 10 1 0
BITMAP
60
60
00
20
E0
60
60
60
60
F0
ENDCHAR

STARTCHAR afii10104
ENCODING 247
SWIDTH 333 0
DWIDTH 5 0
BBX 6 10 0 0
BITMAP
CC
CC
00
10
70
30
30
30
30
78
ENDCHAR

STARTCHAR afii10105
ENCODING 248
SWIDTH 313 0
DWIDTH 5 0
BBX 3 13 1 -3
BITMAP
60
60
00
20
E0
60
60
60
60
60
60
40
80
ENDCHAR

STARTCHAR afii10106
ENCODING 249
SWIDTH 854 0
DWIDTH 11 0
BBX 11 7 0 0
BITMAP
7F00
2600
2600
27C0
2660
2660
CFC0
ENDCHAR

STARTCHAR afii10107
ENCODING 250
SWIDTH 854 0
DWIDTH 11 0
BBX 11 7 0 0
BITMAP
F700
6600
6600
7FC0
6660
6660
F7C0
ENDCHAR

STARTCHAR afii10108
ENCODING 251
SWIDTH 625 0
DWIDTH 8 0
BBX 8 10 0 0
BITMAP
20
60
FE
60
6C
76
66
66
66
F7
ENDCHAR

STARTCHAR afii10109
ENCODING 252
SWIDTH 604 0
DWIDTH 8 0
BBX 8 10 0 0
BITMAP
0C
18
00
F3
65
68
78
6C
66
F7
ENDCHAR

STARTCHAR section
ENCODING 253
SWIDTH 573 0
DWIDTH 8 0
BBX 7 13 1 -3
BITMAP
3C
46
C2
E0
B0
58
6C
36
1A
0E
86
C4
78
ENDCHAR

STARTCHAR afii10110
ENCODING 254
SWIDTH 542 0
DWIDTH 8 0
BBX 9 13 0 -3
BITMAP
2200
1C00
0000
FB80
7100
3100
3200
1A00
1C00
0C00
0800
5800
3000
ENDCHAR

STARTCHAR afii10193
ENCODING 255
SWIDTH 612 0
DWIDTH 9 0
BBX 8 9 0 -2
BITMAP
E7
66
66
66
66
66
FF
18
18
ENDCHAR
ENDFONT
